<svg width="32" height="32" viewBox="0 0 32 32" fill="none" xmlns="http://www.w3.org/2000/svg">
<circle cx="16" cy="16" r="16" fill="#665FD5" fill-opacity="0.12"/>
<g clip-path="url(#clip0_6857_60932)">
<g clip-path="url(#clip1_6857_60932)">
<path d="M9.26729 17.7723L9 17.9937L12.8911 18.4758C13.4563 18.7 14.0459 18.8601 14.6537 18.958C14.8579 16.9867 16.9606 15.4321 19.5185 15.4321C20.5549 15.4321 21.516 15.688 22.3073 16.1228C22.802 15.3797 23.0828 14.5373 23.0828 13.6443C23.0828 10.6512 19.9419 8.21582 16.0812 8.21582C12.2204 8.21582 9.07899 10.6512 9.07899 13.6443C9.07899 14.719 9.48353 15.7538 10.25 16.6468L10.2437 16.6516L10.3185 16.7306C10.2323 16.9047 9.7256 17.3922 9.26729 17.7723ZM11.4192 11.2356H20.5465V11.7297H11.4192V11.2356ZM11.4192 13.068H20.5465V13.562H11.4192V13.068ZM11.4192 14.9006H16.2515V15.3947H11.4192V14.9006Z" fill="#665FD5"/>
<path d="M15.0367 19.2738C15.0367 21.1717 17.0477 22.7155 19.5185 22.7155C20.0648 22.7155 20.6021 22.6386 21.1154 22.4878L21.2244 22.4558L22.481 23.613V21.8519L22.5645 21.792C23.4766 21.1409 23.9997 20.2227 23.9997 19.2738C23.9997 17.3762 21.9887 15.832 19.5182 15.832C17.0477 15.832 15.0364 17.3762 15.0364 19.2738H15.0367Z" fill="#665FD5"/>
<path d="M20.5468 11.2354H11.4192V11.7294H20.5468V11.2354Z" fill="#FCFCFC"/>
<path d="M20.5468 13.0684H11.4192V13.5624H20.5468V13.0684Z" fill="#FCFCFC"/>
<path d="M16.2518 14.9014H11.4192V15.3954H16.2518V14.9014Z" fill="#FCFCFC"/>
</g>
</g>
<defs>
<clipPath id="clip0_6857_60932">
<rect width="15.0588" height="15.0588" fill="white" transform="translate(8.4707 8.4707)"/>
</clipPath>
<clipPath id="clip1_6857_60932">
<rect width="15" height="15.3965" fill="white" transform="translate(9 8.21582)"/>
</clipPath>
</defs>
</svg>
