<svg width="73" height="84" viewBox="0 0 73 84" fill="none" xmlns="http://www.w3.org/2000/svg">
<g clip-path="url(#clip0_6857_60349)">
<path opacity="0.4" d="M0.5 62.4858C0.5 63.1929 0.644643 63.9161 0.95 64.5911C1.78571 66.4393 3.61786 67.6286 5.64286 67.6286H67.3571C69.3821 67.6286 71.2143 66.4393 72.05 64.5911C72.3554 63.9161 72.5 63.1929 72.5 62.4858C72.5 61.2483 72.05 60.0268 71.1982 59.0626L70.0089 57.7286C64.9946 52.0715 62.2143 44.7911 62.2143 37.2215V34.2001C62.2143 21.7608 53.375 11.3786 41.6429 9.00006V5.91434C41.6429 3.0697 39.3446 0.771484 36.5 0.771484C33.6554 0.771484 31.3571 3.0697 31.3571 5.91434V9.00006C19.625 11.3786 10.7857 21.7608 10.7857 34.2001V37.2215C10.7857 44.7751 8.00536 52.0715 2.99107 57.7286L1.80179 59.0626C0.95 60.0268 0.5 61.2483 0.5 62.4858Z" fill="#49657B"/>
<path d="M46.7857 72.7715C46.7857 75.5036 45.7089 78.1233 43.7804 80.0518C41.8518 81.9804 39.2322 83.0572 36.5 83.0572C33.7679 83.0572 31.1482 81.9804 29.2197 80.0518C27.2911 78.1233 26.2143 75.5036 26.2143 72.7715H36.5H46.7857Z" fill="#49657B"/>
</g>
<defs>
<clipPath id="clip0_6857_60349">
<rect width="72" height="82.2857" fill="white" transform="translate(0.5 0.771484)"/>
</clipPath>
</defs>
</svg>
