<svg width="14" height="14" viewBox="0 0 14 14" fill="none" xmlns="http://www.w3.org/2000/svg">
<path d="M8.00924 2.04751L9.0359 4.10084C9.1759 4.38668 9.54924 4.66084 9.86424 4.71334L11.7251 5.02251C12.9151 5.22084 13.1951 6.08418 12.3376 6.93584L10.8909 8.38251C10.6459 8.62751 10.5117 9.10001 10.5876 9.43834L11.0017 11.2292C11.3284 12.6467 10.5759 13.195 9.32174 12.4542L7.57757 11.4217C7.26257 11.235 6.7434 11.235 6.42257 11.4217L4.6784 12.4542C3.43007 13.195 2.67174 12.6408 2.9984 11.2292L3.41257 9.43834C3.4884 9.10001 3.35424 8.62751 3.10924 8.38251L1.66257 6.93584C0.810902 6.08418 1.08507 5.22084 2.27507 5.02251L4.1359 4.71334C4.44507 4.66084 4.8184 4.38668 4.9584 4.10084L5.98507 2.04751C6.54507 0.933342 7.45507 0.933342 8.00924 2.04751Z" fill="#665FD5"/>
</svg>
