<svg width="72" height="72" viewBox="0 0 72 72" fill="none" xmlns="http://www.w3.org/2000/svg">
<g clip-path="url(#clip0_6768_22082)">
<path opacity="0.4" d="M27 18V22.5V27V40.5V45V49.5H28.2235C37.7719 49.5 46.9266 53.2969 53.6766 60.0469L59.8078 66.1781C61.1016 67.4719 63.0282 67.8516 64.7157 67.1484C66.4032 66.4453 67.5 64.8141 67.5 62.9859V42.2297V25.2563V4.5C67.5 2.68594 66.4032 1.04062 64.7157 0.3375C64.1672 0.1125 63.5766 0 63 0C61.8328 0 60.6797 0.464062 59.8219 1.32187L53.6766 7.45312C46.9266 14.2031 37.7719 18 28.2235 18C27.8157 18 27.4078 18 27 18Z" fill="#49657B" fill-opacity="0.5"/>
<path d="M3.05176e-05 27C3.05176e-05 22.0359 4.03597 18 9.00003 18H27V45V49.5V67.5C27 69.9891 24.9891 72 22.5 72H13.5C11.011 72 9.00003 69.9891 9.00003 67.5V49.5C4.03597 49.5 3.05176e-05 45.4641 3.05176e-05 40.5V27ZM72 33.75C72 37.6734 70.1157 41.0062 67.5 42.2437V25.2703C70.1157 26.5078 72 29.8406 72 33.7641V33.75Z" fill="#49657B"/>
</g>
<defs>
<clipPath id="clip0_6768_22082">
<rect width="72" height="72" fill="white"/>
</clipPath>
</defs>
</svg>
