<svg width="72" height="72" viewBox="0 0 72 72" fill="none" xmlns="http://www.w3.org/2000/svg">
<g clip-path="url(#clip0_6768_28886)">
<path opacity="0.4" d="M0 36C0 55.8844 16.1156 72 36 72C55.8844 72 72 55.8844 72 36C72 31.8375 71.2969 27.8438 69.9891 24.1172L63.9281 30.1781L62.6203 31.4859C62.8734 32.9484 63 34.4531 63 36C63 50.9062 50.9062 63 36 63C21.0938 63 9 50.9062 9 36C9 21.0938 21.0938 9 36 9C37.5328 9 39.0375 9.12656 40.5141 9.37969L41.8219 8.07188L47.8828 2.01094C44.1562 0.703125 40.1625 0 36 0C16.1156 0 0 16.1156 0 36ZM15.75 36C15.75 47.1797 24.8203 56.25 36 56.25C47.1797 56.25 56.25 47.1797 56.25 36C56.25 34.1578 56.0109 32.3859 55.5469 30.6984L51.525 30.0234L47.1375 34.4109C47.2078 34.9312 47.25 35.4656 47.25 36C47.25 42.2156 42.2156 47.25 36 47.25C29.7844 47.25 24.75 42.2156 24.75 36C24.75 29.7844 29.7844 24.75 36 24.75C36.5344 24.75 37.0687 24.7922 37.5891 24.8625L41.9766 20.475L41.3016 16.4531C39.6141 15.9891 37.8281 15.75 36 15.75C24.8203 15.75 15.75 24.8203 15.75 36Z" fill="#49657B" fill-opacity="0.5"/>
<path d="M46.575 20.6575L45.3937 13.5278C45.1547 12.0935 45.6188 10.631 46.6453 9.6044L53.8453 2.4044C54.9844 1.26533 56.9109 1.67315 57.5156 3.16377L60.75 11.2497L68.8359 14.4841C70.3406 15.0888 70.7344 17.0153 69.5953 18.1685L62.3953 25.3685C61.3688 26.395 59.9062 26.8591 58.4719 26.62L51.3422 25.4388L38.3906 38.3903C37.0688 39.7122 34.9313 39.7122 33.6234 38.3903C32.3156 37.0685 32.3016 34.931 33.6234 33.6231L46.575 20.6716V20.6575Z" fill="#49657B"/>
</g>
<defs>
<clipPath id="clip0_6768_28886">
<rect width="72" height="72" fill="white"/>
</clipPath>
</defs>
</svg>
