<svg width="19" height="20" viewBox="0 0 19 20" fill="none" xmlns="http://www.w3.org/2000/svg">
<path d="M10.5521 3.65245L10.5526 3.65352L11.893 6.33429C12.0359 6.62471 12.2746 6.87297 12.5212 7.05494C12.7688 7.23764 13.0762 7.39173 13.3935 7.44461L13.3938 7.44466L15.8246 7.84854C16.5034 7.96167 16.7262 8.22915 16.7777 8.38942C16.8288 8.54841 16.8047 8.89358 16.316 9.37893L16.3147 9.38031L14.4246 11.2704C14.1789 11.5161 14.0145 11.8446 13.9239 12.1612C13.8332 12.4781 13.7993 12.8425 13.8747 13.179L13.8747 13.179L13.8756 13.1828L14.4166 15.5221C14.6189 16.3998 14.415 16.7158 14.3139 16.7895C14.2118 16.8639 13.8464 16.961 13.0694 16.502L10.7913 15.1535C10.4758 14.9665 10.096 14.8907 9.74827 14.8907C9.40006 14.8907 9.02048 14.9667 8.70346 15.1512L8.70346 15.1511L8.69974 15.1533L6.42099 16.5023L6.42045 16.5026C5.65004 16.9598 5.28394 16.8626 5.17998 16.7868C5.07646 16.7113 4.87261 16.3934 5.07413 15.5226L5.07415 15.5225L5.61525 13.1828L5.61527 13.1828L5.61611 13.179C5.69154 12.8425 5.65762 12.4781 5.56692 12.1612C5.47629 11.8446 5.31194 11.5161 5.06623 11.2704L3.17617 9.38031C2.6907 8.89484 2.66512 8.54873 2.71632 8.38839C2.76734 8.22861 2.98792 7.96165 3.6659 7.84858C3.66597 7.84857 3.66603 7.84856 3.6661 7.84855C3.66613 7.84855 3.66616 7.84854 3.66619 7.84854L6.09707 7.44466L6.09708 7.44466L6.09909 7.44432C6.41316 7.39099 6.71839 7.23627 6.96401 7.05415C7.20891 6.87256 7.44737 6.62457 7.59016 6.33434L8.93003 3.65459C8.93013 3.6544 8.93022 3.65421 8.93032 3.65402C9.25474 3.00886 9.58245 2.87774 9.74446 2.87774C9.9055 2.87774 10.2314 3.00767 10.5521 3.65245Z" stroke="#665FD5" stroke-width="1.14318" stroke-linecap="round" stroke-linejoin="round"/>
</svg>
