<svg width="19" height="20" viewBox="0 0 19 20" fill="none" xmlns="http://www.w3.org/2000/svg">
<path d="M10.7548 3.39789L12.0961 6.08057C12.2791 6.45401 12.7668 6.8122 13.1784 6.88079L15.6095 7.28472C17.1643 7.54384 17.5301 8.67178 16.4098 9.78448L14.5197 11.6745C14.1996 11.9946 14.0243 12.612 14.1234 13.054L14.6645 15.3937C15.0913 17.2457 14.1081 17.9621 12.4696 16.9942L10.1908 15.6452C9.77929 15.4013 9.101 15.4013 8.68183 15.6452L6.40308 16.9942C4.77214 17.9621 3.78138 17.238 4.20817 15.3937L4.74928 13.054C4.84835 12.612 4.67307 11.9946 4.35297 11.6745L2.46291 9.78448C1.35021 8.67178 1.70841 7.54384 3.26314 7.28472L5.69431 6.88079C6.09824 6.8122 6.58599 6.45401 6.7689 6.08057L8.11024 3.39789C8.84188 1.94224 10.0308 1.94224 10.7548 3.39789Z" fill="#665FD5"/>
</svg>
