<svg width="107" height="110" viewBox="0 0 107 110" fill="none" xmlns="http://www.w3.org/2000/svg">
<g clip-path="url(#clip0_6768_21751)">
<path d="M1.9067 68.1695L0 69.7492L27.7564 73.1882C31.7883 74.7871 35.9937 75.9292 40.3299 76.6272C41.7867 62.5659 56.7853 51.4762 75.0318 51.4762C82.425 51.4762 89.2806 53.3013 94.9257 56.4031C98.4541 51.1026 100.457 45.0934 100.457 38.7235C100.457 17.3722 78.0525 0 50.5125 0C22.9725 0 0.56344 17.3722 0.56344 38.7235C0.56344 46.3892 3.44919 53.771 8.91649 60.1409L8.8715 60.1751L9.40495 60.7386C8.79009 61.981 5.17593 65.4585 1.9067 68.1695ZM17.2567 21.5413H82.365V25.0657H17.2567V21.5413ZM17.2567 34.612H82.365V38.1364H17.2567V34.612ZM17.2567 47.6849H51.7272V51.2093H17.2567V47.6849Z" fill="#49657B"/>
<path d="M43.0614 78.8754C43.0614 92.4137 57.4066 103.427 75.0318 103.427C78.9287 103.427 82.7614 102.878 86.4227 101.802L87.2003 101.574L96.164 109.829V97.2659L96.7595 96.8389C103.266 92.1938 106.998 85.6445 106.998 78.8754C106.998 65.3393 92.6526 54.3242 75.0296 54.3242C57.4066 54.3242 43.0592 65.3393 43.0592 78.8754H43.0614Z" fill="#49657B" fill-opacity="0.5"/>
<path d="M82.3672 21.541H17.2567V25.0654H82.3672V21.541Z" fill="#FCFCFC"/>
<path d="M82.3672 34.6143H17.2567V38.1386H82.3672V34.6143Z" fill="#FCFCFC"/>
<path d="M51.7293 47.6875H17.2567V51.2119H51.7293V47.6875Z" fill="#FCFCFC"/>
</g>
<defs>
<clipPath id="clip0_6768_21751">
<rect width="107" height="109.828" fill="white"/>
</clipPath>
</defs>
</svg>
